<mxfile host="app.diagrams.net" modified="2024-01-30T16:44:13.046Z" agent="Mozilla/5.0 (X11; Linux x86_64) AppleWebKit/537.36 (KHTML, like Gecko) Chrome/120.0.0.0 Safari/537.36" etag="XCZ5vYUqaVXXjEj1sTrz" version="23.0.2" type="device">
  <diagram name="Page-1" id="O0wUDUgCVIfDpCwV_-Xi">
    <mxGraphModel dx="1434" dy="752" grid="1" gridSize="10" guides="1" tooltips="1" connect="1" arrows="1" fold="1" page="1" pageScale="1" pageWidth="827" pageHeight="1169" math="0" shadow="0">
      <root>
        <mxCell id="0" />
        <mxCell id="1" parent="0" />
        <mxCell id="gaNZ67-SlwvY8vKP8QWB-45" style="edgeStyle=orthogonalEdgeStyle;rounded=0;orthogonalLoop=1;jettySize=auto;html=1;exitX=1;exitY=0.5;exitDx=0;exitDy=0;entryX=0;entryY=0.5;entryDx=0;entryDy=0;" parent="1" source="gaNZ67-SlwvY8vKP8QWB-2" target="gaNZ67-SlwvY8vKP8QWB-43" edge="1">
          <mxGeometry relative="1" as="geometry" />
        </mxCell>
        <mxCell id="gaNZ67-SlwvY8vKP8QWB-2" value="Student" style="rounded=1;whiteSpace=wrap;html=1;" parent="1" vertex="1">
          <mxGeometry x="120" y="115" width="110" height="50" as="geometry" />
        </mxCell>
        <mxCell id="gaNZ67-SlwvY8vKP8QWB-6" style="edgeStyle=orthogonalEdgeStyle;rounded=0;orthogonalLoop=1;jettySize=auto;html=1;exitX=0;exitY=0.5;exitDx=0;exitDy=0;entryX=1.044;entryY=0.2;entryDx=0;entryDy=0;entryPerimeter=0;" parent="1" source="gaNZ67-SlwvY8vKP8QWB-4" target="gaNZ67-SlwvY8vKP8QWB-44" edge="1">
          <mxGeometry relative="1" as="geometry">
            <mxPoint x="460" y="145" as="targetPoint" />
          </mxGeometry>
        </mxCell>
        <mxCell id="gaNZ67-SlwvY8vKP8QWB-4" value="Tutor" style="rounded=1;whiteSpace=wrap;html=1;" parent="1" vertex="1">
          <mxGeometry x="570" y="115" width="110" height="50" as="geometry" />
        </mxCell>
        <mxCell id="gaNZ67-SlwvY8vKP8QWB-43" value="Process" style="swimlane;html=1;startSize=20;fontStyle=0;collapsible=0;horizontal=1;swimlaneLine=1;strokeWidth=2;swimlaneFillColor=#ffffff;whiteSpace=wrap;rounded=1;" parent="1" vertex="1">
          <mxGeometry x="350" y="110" width="100" height="60" as="geometry" />
        </mxCell>
        <mxCell id="gaNZ67-SlwvY8vKP8QWB-44" value="Tuition Media" style="text;html=1;align=center;verticalAlign=middle;resizable=0;points=[];autosize=1;strokeColor=none;fillColor=none;" parent="gaNZ67-SlwvY8vKP8QWB-43" vertex="1">
          <mxGeometry y="25" width="100" height="30" as="geometry" />
        </mxCell>
        <mxCell id="gaNZ67-SlwvY8vKP8QWB-52" style="edgeStyle=orthogonalEdgeStyle;rounded=0;orthogonalLoop=1;jettySize=auto;html=1;exitX=1;exitY=0.5;exitDx=0;exitDy=0;entryX=0;entryY=0.5;entryDx=0;entryDy=0;" parent="1" source="gaNZ67-SlwvY8vKP8QWB-53" target="gaNZ67-SlwvY8vKP8QWB-56" edge="1">
          <mxGeometry relative="1" as="geometry" />
        </mxCell>
        <mxCell id="gaNZ67-SlwvY8vKP8QWB-80" style="edgeStyle=orthogonalEdgeStyle;rounded=0;orthogonalLoop=1;jettySize=auto;html=1;exitX=1;exitY=0.5;exitDx=0;exitDy=0;entryX=0;entryY=0.5;entryDx=0;entryDy=0;" parent="1" source="gaNZ67-SlwvY8vKP8QWB-53" target="gaNZ67-SlwvY8vKP8QWB-67" edge="1">
          <mxGeometry relative="1" as="geometry">
            <Array as="points">
              <mxPoint x="140" y="390" />
              <mxPoint x="250" y="390" />
              <mxPoint x="250" y="500" />
            </Array>
          </mxGeometry>
        </mxCell>
        <mxCell id="fnHnSCufNyeq6H33Wn06-31" style="edgeStyle=orthogonalEdgeStyle;rounded=0;orthogonalLoop=1;jettySize=auto;html=1;exitX=0.25;exitY=1;exitDx=0;exitDy=0;entryX=0.25;entryY=1;entryDx=0;entryDy=0;" edge="1" parent="1" source="gaNZ67-SlwvY8vKP8QWB-53" target="gaNZ67-SlwvY8vKP8QWB-69">
          <mxGeometry relative="1" as="geometry" />
        </mxCell>
        <mxCell id="gaNZ67-SlwvY8vKP8QWB-53" value="Student" style="rounded=1;whiteSpace=wrap;html=1;" parent="1" vertex="1">
          <mxGeometry x="30" y="355" width="110" height="50" as="geometry" />
        </mxCell>
        <mxCell id="gaNZ67-SlwvY8vKP8QWB-78" style="edgeStyle=orthogonalEdgeStyle;rounded=0;orthogonalLoop=1;jettySize=auto;html=1;entryX=0;entryY=0.5;entryDx=0;entryDy=0;" parent="1" source="gaNZ67-SlwvY8vKP8QWB-55" target="gaNZ67-SlwvY8vKP8QWB-67" edge="1">
          <mxGeometry relative="1" as="geometry" />
        </mxCell>
        <mxCell id="gaNZ67-SlwvY8vKP8QWB-82" style="edgeStyle=orthogonalEdgeStyle;rounded=0;orthogonalLoop=1;jettySize=auto;html=1;exitX=1;exitY=0.75;exitDx=0;exitDy=0;entryX=0;entryY=0.5;entryDx=0;entryDy=0;" parent="1" source="gaNZ67-SlwvY8vKP8QWB-55" target="gaNZ67-SlwvY8vKP8QWB-69" edge="1">
          <mxGeometry relative="1" as="geometry" />
        </mxCell>
        <mxCell id="gaNZ67-SlwvY8vKP8QWB-55" value="Tutor" style="rounded=1;whiteSpace=wrap;html=1;" parent="1" vertex="1">
          <mxGeometry x="80" y="522.5" width="110" height="50" as="geometry" />
        </mxCell>
        <mxCell id="gaNZ67-SlwvY8vKP8QWB-56" value="Process" style="swimlane;html=1;startSize=20;fontStyle=0;collapsible=0;horizontal=1;swimlaneLine=1;strokeWidth=2;swimlaneFillColor=#ffffff;whiteSpace=wrap;rounded=1;" parent="1" vertex="1">
          <mxGeometry x="310" y="350" width="100" height="60" as="geometry" />
        </mxCell>
        <mxCell id="gaNZ67-SlwvY8vKP8QWB-57" value="Tutor Request" style="text;html=1;align=center;verticalAlign=middle;resizable=0;points=[];autosize=1;strokeColor=none;fillColor=none;" parent="gaNZ67-SlwvY8vKP8QWB-56" vertex="1">
          <mxGeometry y="25" width="100" height="30" as="geometry" />
        </mxCell>
        <mxCell id="fnHnSCufNyeq6H33Wn06-37" style="edgeStyle=orthogonalEdgeStyle;rounded=0;orthogonalLoop=1;jettySize=auto;html=1;exitX=1;exitY=0.5;exitDx=0;exitDy=0;" edge="1" parent="1" source="gaNZ67-SlwvY8vKP8QWB-67">
          <mxGeometry relative="1" as="geometry">
            <mxPoint x="560" y="550" as="targetPoint" />
            <Array as="points">
              <mxPoint x="410" y="550" />
            </Array>
          </mxGeometry>
        </mxCell>
        <mxCell id="gaNZ67-SlwvY8vKP8QWB-67" value="Process" style="swimlane;html=1;startSize=20;fontStyle=0;collapsible=0;horizontal=1;swimlaneLine=1;strokeWidth=2;swimlaneFillColor=#ffffff;whiteSpace=wrap;rounded=1;" parent="1" vertex="1">
          <mxGeometry x="310" y="470" width="100" height="60" as="geometry" />
        </mxCell>
        <mxCell id="gaNZ67-SlwvY8vKP8QWB-68" value="Edit profile" style="text;html=1;align=center;verticalAlign=middle;resizable=0;points=[];autosize=1;strokeColor=none;fillColor=none;" parent="gaNZ67-SlwvY8vKP8QWB-67" vertex="1">
          <mxGeometry x="10" y="25" width="80" height="30" as="geometry" />
        </mxCell>
        <mxCell id="fnHnSCufNyeq6H33Wn06-38" style="edgeStyle=orthogonalEdgeStyle;rounded=0;orthogonalLoop=1;jettySize=auto;html=1;exitX=1;exitY=0.5;exitDx=0;exitDy=0;entryX=0;entryY=0.5;entryDx=0;entryDy=0;" edge="1" parent="1" source="gaNZ67-SlwvY8vKP8QWB-69" target="gaNZ67-SlwvY8vKP8QWB-72">
          <mxGeometry relative="1" as="geometry" />
        </mxCell>
        <mxCell id="gaNZ67-SlwvY8vKP8QWB-69" value="Process" style="swimlane;html=1;startSize=20;fontStyle=0;collapsible=0;horizontal=1;swimlaneLine=1;strokeWidth=2;swimlaneFillColor=#ffffff;whiteSpace=wrap;rounded=1;" parent="1" vertex="1">
          <mxGeometry x="310" y="590" width="105" height="60" as="geometry" />
        </mxCell>
        <mxCell id="gaNZ67-SlwvY8vKP8QWB-70" value="Application" style="text;html=1;align=center;verticalAlign=middle;resizable=0;points=[];autosize=1;strokeColor=none;fillColor=none;" parent="gaNZ67-SlwvY8vKP8QWB-69" vertex="1">
          <mxGeometry x="10" y="25" width="80" height="30" as="geometry" />
        </mxCell>
        <mxCell id="gaNZ67-SlwvY8vKP8QWB-72" value="D" style="html=1;dashed=0;whiteSpace=wrap;shape=mxgraph.dfd.dataStoreID;align=left;spacingLeft=3;points=[[0,0],[0.5,0],[1,0],[0,0.5],[1,0.5],[0,1],[0.5,1],[1,1]];movable=1;resizable=1;rotatable=1;deletable=1;editable=1;locked=0;connectable=1;" parent="1" vertex="1">
          <mxGeometry x="561.5" y="537.5" width="100" height="30" as="geometry" />
        </mxCell>
        <mxCell id="gaNZ67-SlwvY8vKP8QWB-73" value="" style="group" parent="1" vertex="1" connectable="0">
          <mxGeometry x="529.12" y="537.5" width="184.75" height="30" as="geometry" />
        </mxCell>
        <mxCell id="gaNZ67-SlwvY8vKP8QWB-74" value="Database" style="text;html=1;align=center;verticalAlign=middle;resizable=1;points=[];autosize=1;strokeColor=none;fillColor=none;movable=1;rotatable=1;deletable=1;editable=1;locked=0;connectable=1;" parent="gaNZ67-SlwvY8vKP8QWB-73" vertex="1">
          <mxGeometry x="69.09782608695652" width="70" height="30" as="geometry" />
        </mxCell>
        <mxCell id="fnHnSCufNyeq6H33Wn06-1" style="edgeStyle=orthogonalEdgeStyle;rounded=0;orthogonalLoop=1;jettySize=auto;html=1;entryX=1;entryY=0.75;entryDx=0;entryDy=0;" edge="1" parent="1" source="gaNZ67-SlwvY8vKP8QWB-44" target="gaNZ67-SlwvY8vKP8QWB-2">
          <mxGeometry relative="1" as="geometry" />
        </mxCell>
        <mxCell id="fnHnSCufNyeq6H33Wn06-2" style="edgeStyle=orthogonalEdgeStyle;rounded=0;orthogonalLoop=1;jettySize=auto;html=1;entryX=0;entryY=0.75;entryDx=0;entryDy=0;" edge="1" parent="1" source="gaNZ67-SlwvY8vKP8QWB-44" target="gaNZ67-SlwvY8vKP8QWB-4">
          <mxGeometry relative="1" as="geometry" />
        </mxCell>
        <mxCell id="fnHnSCufNyeq6H33Wn06-3" style="edgeStyle=orthogonalEdgeStyle;rounded=0;orthogonalLoop=1;jettySize=auto;html=1;exitX=0.991;exitY=0.14;exitDx=0;exitDy=0;entryX=0;entryY=0.5;entryDx=0;entryDy=0;exitPerimeter=0;" edge="1" parent="1" source="fnHnSCufNyeq6H33Wn06-7" target="fnHnSCufNyeq6H33Wn06-13">
          <mxGeometry relative="1" as="geometry" />
        </mxCell>
        <mxCell id="fnHnSCufNyeq6H33Wn06-4" value="Creates new request" style="edgeLabel;html=1;align=center;verticalAlign=middle;resizable=0;points=[];" vertex="1" connectable="0" parent="fnHnSCufNyeq6H33Wn06-3">
          <mxGeometry x="-0.2" y="3" relative="1" as="geometry">
            <mxPoint as="offset" />
          </mxGeometry>
        </mxCell>
        <mxCell id="fnHnSCufNyeq6H33Wn06-5" style="edgeStyle=orthogonalEdgeStyle;rounded=0;orthogonalLoop=1;jettySize=auto;html=1;exitX=1;exitY=0.5;exitDx=0;exitDy=0;entryX=0;entryY=0.5;entryDx=0;entryDy=0;" edge="1" parent="1" source="fnHnSCufNyeq6H33Wn06-7" target="fnHnSCufNyeq6H33Wn06-19">
          <mxGeometry relative="1" as="geometry" />
        </mxCell>
        <mxCell id="fnHnSCufNyeq6H33Wn06-6" value="Accepts or rejects applicant" style="edgeStyle=orthogonalEdgeStyle;rounded=0;orthogonalLoop=1;jettySize=auto;html=1;exitX=0;exitY=1;exitDx=0;exitDy=0;entryX=0.75;entryY=1;entryDx=0;entryDy=0;" edge="1" parent="1" source="fnHnSCufNyeq6H33Wn06-7" target="fnHnSCufNyeq6H33Wn06-23">
          <mxGeometry x="0.1522" relative="1" as="geometry">
            <Array as="points">
              <mxPoint x="60" y="785" />
              <mxPoint x="60" y="1050" />
              <mxPoint x="399" y="1050" />
            </Array>
            <mxPoint x="1" as="offset" />
          </mxGeometry>
        </mxCell>
        <mxCell id="fnHnSCufNyeq6H33Wn06-7" value="Student" style="rounded=1;whiteSpace=wrap;html=1;" vertex="1" parent="1">
          <mxGeometry x="90" y="735" width="110" height="50" as="geometry" />
        </mxCell>
        <mxCell id="fnHnSCufNyeq6H33Wn06-8" style="edgeStyle=orthogonalEdgeStyle;rounded=0;orthogonalLoop=1;jettySize=auto;html=1;entryX=0;entryY=0.5;entryDx=0;entryDy=0;" edge="1" parent="1" source="fnHnSCufNyeq6H33Wn06-12" target="fnHnSCufNyeq6H33Wn06-19">
          <mxGeometry relative="1" as="geometry" />
        </mxCell>
        <mxCell id="fnHnSCufNyeq6H33Wn06-9" value="Edit" style="edgeLabel;html=1;align=center;verticalAlign=middle;resizable=0;points=[];" vertex="1" connectable="0" parent="fnHnSCufNyeq6H33Wn06-8">
          <mxGeometry x="0.3576" y="-1" relative="1" as="geometry">
            <mxPoint x="13" y="-1" as="offset" />
          </mxGeometry>
        </mxCell>
        <mxCell id="fnHnSCufNyeq6H33Wn06-10" style="edgeStyle=orthogonalEdgeStyle;rounded=0;orthogonalLoop=1;jettySize=auto;html=1;exitX=1;exitY=0.75;exitDx=0;exitDy=0;entryX=0;entryY=0.5;entryDx=0;entryDy=0;" edge="1" parent="1" source="fnHnSCufNyeq6H33Wn06-12" target="fnHnSCufNyeq6H33Wn06-23">
          <mxGeometry relative="1" as="geometry" />
        </mxCell>
        <mxCell id="fnHnSCufNyeq6H33Wn06-11" value="Applies to tuition" style="edgeLabel;html=1;align=center;verticalAlign=middle;resizable=0;points=[];" vertex="1" connectable="0" parent="fnHnSCufNyeq6H33Wn06-10">
          <mxGeometry x="0.0753" y="-2" relative="1" as="geometry">
            <mxPoint y="1" as="offset" />
          </mxGeometry>
        </mxCell>
        <mxCell id="fnHnSCufNyeq6H33Wn06-12" value="Tutor" style="rounded=1;whiteSpace=wrap;html=1;" vertex="1" parent="1">
          <mxGeometry x="90" y="902.5" width="110" height="50" as="geometry" />
        </mxCell>
        <mxCell id="fnHnSCufNyeq6H33Wn06-13" value="Process" style="swimlane;html=1;startSize=20;fontStyle=0;collapsible=0;horizontal=1;swimlaneLine=1;strokeWidth=2;swimlaneFillColor=#ffffff;whiteSpace=wrap;rounded=1;" vertex="1" parent="1">
          <mxGeometry x="380" y="730" width="100" height="60" as="geometry" />
        </mxCell>
        <mxCell id="fnHnSCufNyeq6H33Wn06-14" value="Tutor Request" style="text;html=1;align=center;verticalAlign=middle;resizable=0;points=[];autosize=1;strokeColor=none;fillColor=none;" vertex="1" parent="fnHnSCufNyeq6H33Wn06-13">
          <mxGeometry y="25" width="100" height="30" as="geometry" />
        </mxCell>
        <mxCell id="fnHnSCufNyeq6H33Wn06-15" value="D" style="html=1;dashed=0;whiteSpace=wrap;shape=mxgraph.dfd.dataStoreID;align=left;spacingLeft=3;points=[[0,0],[0.5,0],[1,0],[0,0.5],[1,0.5],[0,1],[0.5,1],[1,1]];movable=1;resizable=1;rotatable=1;deletable=1;editable=1;locked=0;connectable=1;" vertex="1" parent="1">
          <mxGeometry x="571.5" y="827.5" width="100" height="30" as="geometry" />
        </mxCell>
        <mxCell id="fnHnSCufNyeq6H33Wn06-16" value="" style="group" vertex="1" connectable="0" parent="1">
          <mxGeometry x="571.5" y="827.5" width="115" height="30" as="geometry" />
        </mxCell>
        <mxCell id="fnHnSCufNyeq6H33Wn06-17" value="Profile" style="text;html=1;align=center;verticalAlign=middle;resizable=1;points=[];autosize=1;strokeColor=none;fillColor=none;movable=1;rotatable=1;deletable=1;editable=1;locked=0;connectable=1;" vertex="1" parent="fnHnSCufNyeq6H33Wn06-16">
          <mxGeometry x="35" width="60" height="30" as="geometry" />
        </mxCell>
        <mxCell id="fnHnSCufNyeq6H33Wn06-18" style="edgeStyle=orthogonalEdgeStyle;rounded=0;orthogonalLoop=1;jettySize=auto;html=1;exitX=1;exitY=0.5;exitDx=0;exitDy=0;" edge="1" parent="1" source="fnHnSCufNyeq6H33Wn06-19" target="fnHnSCufNyeq6H33Wn06-15">
          <mxGeometry relative="1" as="geometry" />
        </mxCell>
        <mxCell id="fnHnSCufNyeq6H33Wn06-19" value="Process" style="swimlane;html=1;startSize=20;fontStyle=0;collapsible=0;horizontal=1;swimlaneLine=1;strokeWidth=2;swimlaneFillColor=#ffffff;whiteSpace=wrap;rounded=1;" vertex="1" parent="1">
          <mxGeometry x="320" y="852.5" width="100" height="60" as="geometry" />
        </mxCell>
        <mxCell id="fnHnSCufNyeq6H33Wn06-20" value="Edit profile" style="text;html=1;align=center;verticalAlign=middle;resizable=0;points=[];autosize=1;strokeColor=none;fillColor=none;" vertex="1" parent="fnHnSCufNyeq6H33Wn06-19">
          <mxGeometry x="10" y="25" width="80" height="30" as="geometry" />
        </mxCell>
        <mxCell id="fnHnSCufNyeq6H33Wn06-21" style="edgeStyle=orthogonalEdgeStyle;rounded=0;orthogonalLoop=1;jettySize=auto;html=1;exitX=1;exitY=0.25;exitDx=0;exitDy=0;" edge="1" parent="1" source="fnHnSCufNyeq6H33Wn06-23" target="fnHnSCufNyeq6H33Wn06-7">
          <mxGeometry relative="1" as="geometry">
            <Array as="points">
              <mxPoint x="425" y="980" />
              <mxPoint x="445" y="980" />
              <mxPoint x="445" y="810" />
              <mxPoint x="145" y="810" />
            </Array>
          </mxGeometry>
        </mxCell>
        <mxCell id="fnHnSCufNyeq6H33Wn06-22" value="get notified about applications" style="edgeLabel;html=1;align=center;verticalAlign=middle;resizable=0;points=[];" vertex="1" connectable="0" parent="fnHnSCufNyeq6H33Wn06-21">
          <mxGeometry x="0.2299" relative="1" as="geometry">
            <mxPoint x="18" as="offset" />
          </mxGeometry>
        </mxCell>
        <mxCell id="fnHnSCufNyeq6H33Wn06-23" value="Process" style="swimlane;html=1;startSize=20;fontStyle=0;collapsible=0;horizontal=1;swimlaneLine=1;strokeWidth=2;swimlaneFillColor=#ffffff;whiteSpace=wrap;rounded=1;" vertex="1" parent="1">
          <mxGeometry x="320" y="970" width="105" height="60" as="geometry" />
        </mxCell>
        <mxCell id="fnHnSCufNyeq6H33Wn06-24" value="Application" style="text;html=1;align=center;verticalAlign=middle;resizable=0;points=[];autosize=1;strokeColor=none;fillColor=none;" vertex="1" parent="fnHnSCufNyeq6H33Wn06-23">
          <mxGeometry x="10" y="25" width="80" height="30" as="geometry" />
        </mxCell>
        <mxCell id="fnHnSCufNyeq6H33Wn06-25" value="D" style="html=1;dashed=0;whiteSpace=wrap;shape=mxgraph.dfd.dataStoreID;align=left;spacingLeft=3;points=[[0,0],[0.5,0],[1,0],[0,0.5],[1,0.5],[0,1],[0.5,1],[1,1]];movable=1;resizable=1;rotatable=1;deletable=1;editable=1;locked=0;connectable=1;" vertex="1" parent="1">
          <mxGeometry x="571.5" y="917.5" width="100" height="30" as="geometry" />
        </mxCell>
        <mxCell id="fnHnSCufNyeq6H33Wn06-26" value="" style="group" vertex="1" connectable="0" parent="1">
          <mxGeometry x="555.25" y="917.5" width="147.5" height="30" as="geometry" />
        </mxCell>
        <mxCell id="fnHnSCufNyeq6H33Wn06-27" value="TutorRequest" style="text;html=1;align=center;verticalAlign=middle;resizable=1;points=[];autosize=1;strokeColor=none;fillColor=none;movable=1;rotatable=1;deletable=1;editable=1;locked=0;connectable=1;" vertex="1" parent="fnHnSCufNyeq6H33Wn06-26">
          <mxGeometry x="19.23913043478261" width="128.26086956521738" height="30" as="geometry" />
        </mxCell>
        <mxCell id="fnHnSCufNyeq6H33Wn06-28" style="edgeStyle=orthogonalEdgeStyle;rounded=0;orthogonalLoop=1;jettySize=auto;html=1;entryX=-0.004;entryY=0.55;entryDx=0;entryDy=0;entryPerimeter=0;" edge="1" parent="1" source="fnHnSCufNyeq6H33Wn06-14" target="fnHnSCufNyeq6H33Wn06-27">
          <mxGeometry relative="1" as="geometry" />
        </mxCell>
        <mxCell id="fnHnSCufNyeq6H33Wn06-29" style="edgeStyle=orthogonalEdgeStyle;rounded=0;orthogonalLoop=1;jettySize=auto;html=1;exitX=1;exitY=0.5;exitDx=0;exitDy=0;entryX=0.004;entryY=0.583;entryDx=0;entryDy=0;entryPerimeter=0;" edge="1" parent="1" source="fnHnSCufNyeq6H33Wn06-23" target="fnHnSCufNyeq6H33Wn06-27">
          <mxGeometry relative="1" as="geometry" />
        </mxCell>
        <mxCell id="fnHnSCufNyeq6H33Wn06-33" style="edgeStyle=orthogonalEdgeStyle;rounded=0;orthogonalLoop=1;jettySize=auto;html=1;entryX=0.109;entryY=1;entryDx=0;entryDy=0;entryPerimeter=0;exitX=0.713;exitY=1.167;exitDx=0;exitDy=0;exitPerimeter=0;" edge="1" parent="1" source="gaNZ67-SlwvY8vKP8QWB-70" target="gaNZ67-SlwvY8vKP8QWB-53">
          <mxGeometry relative="1" as="geometry">
            <Array as="points">
              <mxPoint x="350" y="650" />
              <mxPoint x="350" y="690" />
              <mxPoint x="42" y="690" />
            </Array>
          </mxGeometry>
        </mxCell>
        <mxCell id="fnHnSCufNyeq6H33Wn06-36" style="edgeStyle=orthogonalEdgeStyle;rounded=0;orthogonalLoop=1;jettySize=auto;html=1;entryX=0;entryY=0.5;entryDx=0;entryDy=0;" edge="1" parent="1" source="gaNZ67-SlwvY8vKP8QWB-57" target="gaNZ67-SlwvY8vKP8QWB-72">
          <mxGeometry relative="1" as="geometry" />
        </mxCell>
      </root>
    </mxGraphModel>
  </diagram>
</mxfile>
